<?xml version="1.0" encoding="UTF-8"?><svg id="a" xmlns="http://www.w3.org/2000/svg" width="107.3" height="35.17" viewBox="0 0 107.3 35.17"><path d="m26.38,12.42h-12.52v3.72h8.88c-.44,5.2-4.77,7.43-8.86,7.43-5.39.02-9.78-4.33-9.8-9.72,0-.06,0-.12,0-.17,0-5.62,4.35-9.95,9.81-9.95,4.21,0,6.69,2.68,6.69,2.68l2.6-2.69S19.84,0,13.75,0C6,0,0,6.54,0,13.61s5.64,13.68,13.95,13.68c7.31,0,12.66-5.01,12.66-12.41,0-1.56-.23-2.46-.23-2.46h0Z" fill="#6b7280" stroke-width="0"/><path id="b" d="m36.64,9.73c-5.14,0-8.82,4.02-8.82,8.7s3.57,8.85,8.88,8.85c4.81,0,8.74-3.67,8.74-8.74,0-5.8-4.58-8.8-8.8-8.8h0Zm.05,3.45c2.53,0,4.92,2.04,4.92,5.33s-2.38,5.32-4.93,5.32c-2.8,0-5-2.24-5-5.35s2.18-5.31,5.02-5.31h0Z" fill="#6b7280" stroke-width="0"/><path id="c" d="m55.82,9.73c-5.14,0-8.82,4.02-8.82,8.7s3.57,8.85,8.88,8.85c4.81,0,8.74-3.67,8.74-8.74,0-5.8-4.58-8.8-8.8-8.8h0Zm.05,3.45c2.53,0,4.92,2.04,4.92,5.33s-2.38,5.32-4.93,5.32c-2.8,0-5-2.24-5-5.35s2.18-5.31,5.02-5.31h0Z" fill="#6b7280" stroke-width="0"/><path d="m74.63,9.74c-4.72,0-8.42,4.13-8.42,8.77,0,5.28,4.3,8.78,8.34,8.78,2.5,0,3.83-.99,4.8-2.13v1.73c0,3.03-1.84,4.84-4.61,4.84s-4.02-1.99-4.5-3.12l-3.37,1.4c1.2,2.53,3.6,5.17,7.9,5.17,4.7,0,8.26-2.95,8.26-9.15v-15.76h-3.66v1.49c-1.13-1.22-2.68-2.01-4.73-2.01h0Zm.34,3.44c2.31,0,4.69,1.97,4.69,5.34s-2.37,5.31-4.74,5.31c-2.51,0-4.85-2.04-4.85-5.28s2.43-5.38,4.9-5.38h0Z" fill="#6b7280" stroke-width="0"/><path d="m99.41,9.72c-4.45,0-8.18,3.54-8.18,8.76,0,5.53,4.16,8.8,8.6,8.8,3.71,0,6-2.03,7.35-3.85l-3.03-2.02c-.79,1.22-2.1,2.42-4.3,2.42-2.47,0-3.6-1.35-4.3-2.66l11.76-4.88-.6-1.43c-1.14-2.8-3.79-5.14-7.29-5.14h0Zm.15,3.37c1.6,0,2.76.85,3.25,1.87l-7.86,3.28c-.34-2.54,2.07-5.16,4.6-5.16h.01Z" fill="#6b7280" stroke-width="0"/><path d="m85.61,26.77h3.86V.91h-3.86v25.86Z" fill="#6b7280" stroke-width="0"/></svg>