<?xml version="1.0" encoding="UTF-8"?><svg id="Layer_2" xmlns="http://www.w3.org/2000/svg" viewBox="0 0 286.41 332.41"><defs><style>.cls-1{fill:#fff;stroke-width:0px;}</style></defs><g id="Layer_1-2"><path class="cls-1" d="m0,.97C1.76.29,3.57.13,5.45.1c27.71-.51,53.75,6.1,78.4,18.51,1.52.77,2.65.74,4.17-.02C106.3,9.37,125.57,3.22,145.95,1.03c23.56-2.54,46.7-.38,69.41,6.72,12.16,3.8,23.61,9.04,34.49,15.49,8.88,5.26,17.12,11.49,24.9,18.32,3.49,3.06,7.04,6.04,10.2,9.45,2.12,2.29,1.96,2.82-.77,4.32-10.87,6.01-21.55,12.28-30.4,21.21-2.11,2.13-2.4,2.09-4.81-.2-7.86-7.46-16.5-13.78-26.06-18.97-11.46-6.22-23.66-9.98-36.37-12.4-7.65-1.46-15.34-2.2-23.15-2.13-9.57.08-18.91,1.65-28.2,3.75-1.69.38-3.38.8-5.05,1.28-1.41.4-2.92.6-4.35,1.78,2.04,2.26,3.94,4.4,5.89,6.49,8.04,8.62,14.51,18.34,20.23,28.61,9.34,16.77,15.66,34.6,18.88,53.52.64,3.77.69,3.78,4.76,3.78,21.57,0,43.14,0,64.71,0q5.49,0,5.49,5.59c0,11.25,0,22.5,0,33.74,0,.93-.03,1.85-.03,2.78,0,1.74-.94,2.51-2.61,2.54-.93.02-1.85.03-2.78.03-20.76,0-41.51.02-62.27.02-.93,0-1.86-.01-2.78.02-2.89.11-3.11.2-3.66,3.07-1.15,6.03-2.19,12.09-3.75,18.04-6.22,23.7-17.14,44.98-32.65,63.92-2.5,3.05-5.16,5.95-7.7,8.97-1.67,1.98-1.51,2.52,1.07,3.2,9.2,2.4,18.47,4.29,28,5.11,13.94,1.19,27.6-.23,40.95-4.03,17.03-4.85,32.43-13.04,46.09-24.39,1.96-1.63,3.8-3.4,5.71-5.09,2.01-1.78,2.36-1.81,4.38-.01,5.46,4.86,10.98,9.63,17.17,13.57,4.21,2.68,8.52,5.18,12.9,7.56,3.2,1.74,3.24,1.79.89,4.39-5.7,6.29-12.12,11.8-18.82,16.97-22.12,17.06-47.08,27.6-74.58,32.17-13.09,2.18-26.25,2.65-39.49,1.51-12.51-1.08-24.9-2.75-36.82-6.83-8.89-3.04-17.63-6.5-25.96-10.88-2.18-1.15-4-1.12-6.18,0-17.59,9.08-36.31,14.64-55.89,17.21-7.58.99-15.23,1.34-22.91,1.07-1.45-.05-2.56-1.14-4.01-.87v-41.05c1.96-.88,4.05-.84,6.14-.86,7.3-.07,14.57-.62,21.78-1.79,17.23-2.8,32.87-9.54,47.31-19.16,8.8-5.86,16.71-12.79,23.95-20.53,3.67-3.92,6.6-8.36,9.68-12.7,4.7-6.63,8.79-13.66,11.83-21.2,8.42-20.81,11.43-42.4,8.56-64.72-1.78-13.8-5.92-26.92-12.22-39.3-9.95-19.54-24.42-35.05-42.58-47.22-12.88-8.63-26.99-14.25-42.17-17.24-7.84-1.54-15.7-3.03-23.75-2.87-2.88.06-5.74.06-8.53-.8V.97Z"/></g></svg>