<?xml version="1.0" encoding="UTF-8"?><svg id="a" xmlns="http://www.w3.org/2000/svg" width="114.41" height="24.43" viewBox="0 0 114.41 24.43"><path d="m12.22,0C5.48,0,0,5.48,0,12.22s5.48,12.22,12.22,12.22,12.22-5.48,12.22-12.22S18.96,0,12.22,0Zm0,23.21c-6.07,0-10.99-4.94-10.99-10.99S6.15,1.22,12.22,1.22s10.99,4.94,10.99,10.99-4.92,10.99-10.99,10.99Z" fill="#6b7280" stroke-width="0"/><path d="m16.57,4.39s-.09-.04-.15-.04c-.16,0-.28.12-.28.28v3.82c0,.13-.11.24-.24.24h-7.4c-.13,0-.23-.11-.24-.24v-3.82c0-.05-.01-.09-.04-.15-.08-.13-.26-.17-.39-.09-2.73,1.68-4.39,4.6-4.39,7.83s1.65,6.15,4.41,7.83c.04.03.09.04.15.04.16,0,.28-.12.28-.28v-3.82c0-.13.11-.23.24-.24h7.4c.13,0,.24.11.24.24v3.82c0,.05.01.09.04.15.08.13.26.17.39.09,2.76-1.68,4.41-4.6,4.41-7.83s-1.68-6.15-4.44-7.83h0Zm-9.71,12.62l.04.46-.3-.36c-2.27-2.87-2.27-6.92,0-9.78l.26-.32.04-.04-.04.47c-.04.38-.05.77-.05,1.16v7.25c0,.39.03.78.05,1.17Zm9.28-2.96c0,.13-.11.24-.24.24h-7.4c-.13,0-.23-.11-.24-.24v-3.66c0-.13.11-.24.24-.24h7.4c.13,0,.24.11.24.24v3.66Zm1.67,3.05l-.3.36.04-.46c.04-.38.05-.77.05-1.16v-7.26c0-.39-.01-.78-.05-1.16v-.2s-.03-.22-.03-.22v-.05l.28.36c1.1,1.37,1.71,3.12,1.71,4.88s-.61,3.52-1.71,4.9Z" fill="#6b7280" stroke-width="0"/><path d="m42.86,12c-.07-.03-.15-.05-.15-.13,0-.05.03-.09.08-.12.09-.04,2.42-.87,2.42-3.62,0-3.05-2.06-4.87-5.53-4.87h-8.41v17.95h9.18c2.68,0,5.56-1.9,5.56-4.95s-2.21-3.94-3.15-4.25h0Zm-7.35-5.07c0-.07.05-.12.12-.12h3.34c1.1,0,1.86.74,1.86,1.84,0,.86-.67,1.79-1.94,1.79h-3.26c-.07,0-.12-.05-.12-.12v-3.39Zm3.46,10.74h-3.34c-.07,0-.12-.05-.12-.12v-3.58c0-.07.05-.12.12-.12h3.26c1.6,0,2.52.69,2.52,1.9s-.85,1.92-2.44,1.92h0Zm35.44-7.26l-.65-.13c-1.45-.31-2.87-.7-2.87-1.95s1.17-1.82,2.33-1.82c1.36,0,2.7.61,3.73,1.65l2.66-2.64c-1.14-1.26-3.17-2.72-6.46-2.72-3.96,0-6.62,2.25-6.62,5.6,0,3.54,2.78,4.87,5.13,5.37l.63.13c2.27.48,3.35.85,3.35,2.14,0,1.16-1.04,1.92-2.57,1.92-1.8,0-3.4-.79-4.61-2.29l-2.73,2.68c1.45,1.72,3.38,3.28,7.4,3.28,3.43,0,6.92-1.99,6.92-5.81-.01-3.91-2.68-4.8-5.64-5.42h0Zm35.45-7.14v6.57c0,.07-.05.12-.12.12h-5.52c-.07,0-.12-.05-.12-.12V3.26h-4.52v17.95h4.52v-7.05c0-.07.05-.12.12-.12h5.52c.07,0,.12.05.12.12v7.05h4.55V3.26h-4.55Zm-19.37,14.27c-2.03,0-4.22-1.7-4.22-5.42,0-3.4,2.06-5.18,4.09-5.18,1.48,0,2.52.62,3.34,1.99l3.47-2.3c-1.78-2.61-3.89-3.79-6.83-3.79-5.77,0-8.35,4.67-8.35,9.28,0,5.61,3.42,9.52,8.3,9.52,3.63,0,5.29-1.33,7.02-3.79l-3.5-2.35c-.78,1.26-1.63,2.04-3.31,2.04h0ZM56.17,2.8c-4.94,0-8.25,3.78-8.25,9.42s3.31,9.42,8.25,9.42,8.25-3.78,8.25-9.42-3.31-9.42-8.25-9.42h0Zm0,14.73c-2.42,0-3.98-2.09-3.98-5.31s1.56-5.29,3.98-5.29,4.01,2.07,4.01,5.29-1.57,5.31-4.01,5.31Z" fill="#6b7280" stroke-width="0"/></svg>