<svg xmlns="http://www.w3.org/2000/svg" width="109.82" height="33.94"><path fill="#e6e6e6" d="M26.24 0c-3.76 0-6.81 3.06-6.81 6.84s3.05 6.83 6.81 6.83 6.81-3.06 6.81-6.83S29.99 0 26.24 0"/><path fill="#6b7280" d="M18.32 13.24H2c-1.11-.04-2-.99-2-2.11 2.99 0 11.28.01 18.32 0zm0 20.69H2c-1.11-.04-2-.99-2-2.11 2.99 0 11.28.01 18.32 0zm0-16.55H2c-1.11-.04-2-.99-2-2.11 2.99 0 11.28.01 18.32 0zm0 4.14H2c-1.11-.04-2-.99-2-2.11 2.99 0 11.28.01 18.32 0zm0 4.14H2c-1.11-.04-2-.99-2-2.11 2.99 0 11.28.01 18.32 0zm0 4.13H2c-1.11-.04-2-.99-2-2.11 2.99 0 11.28.01 18.32 0z"/><path fill="#b3b3b3" d="m18.32 11.13 6.44-5.29-6.44 7.4zm0 20.69 6.44-5.28-6.44 7.4zm0-16.56c2.14-1.76 4.3-3.53 6.44-5.28-2.14 2.46-4.3 4.93-6.44 7.39zm0 4.14c2.14-1.76 4.3-3.53 6.44-5.28-2.14 2.46-4.3 4.93-6.44 7.4zm0 4.14c2.14-1.76 4.3-3.53 6.44-5.28-2.14 2.46-4.3 4.93-6.44 7.4zm6.44-1.14c-2.14 2.46-4.3 4.93-6.44 7.4v-2.11c2.15-1.78 4.3-3.53 6.44-5.29"/><path fill="#6b7280" d="M37.44 25.19c-.14.23-.34.39-.54.5s-.45.18-.7.23c-.25.02-.48.05-.66.05h-1.86v-3.33h1.86c.2 0 .43.02.68.07s.48.14.7.25.41.29.54.5c.14.23.2.5.2.84-.02.39-.09.68-.23.91m-3.78-7.32h1.7c.2 0 .41.02.61.07s.41.11.57.23.29.27.41.45.16.43.16.7-.05.5-.16.68-.23.34-.41.45c-.16.11-.34.18-.54.25-.2.05-.41.07-.63.07h-1.7v-2.9Zm6.3 8.2c.23-.43.32-.95.32-1.56 0-.48-.09-.88-.25-1.22-.18-.34-.39-.63-.63-.86s-.52-.41-.79-.52c-.27-.14-.52-.2-.75-.25l-.32-.07.32-.09c.14-.05.32-.11.52-.23.2-.11.41-.27.59-.48s.34-.45.48-.75.2-.61.2-1c0-.41-.07-.79-.2-1.18-.14-.36-.36-.7-.68-.97s-.75-.52-1.25-.68c-.52-.18-1.13-.25-1.88-.25h-4.49v12.01h4.46c.72 0 1.38-.07 1.95-.18.57-.14 1.06-.32 1.47-.59.41-.36.7-.7.93-1.13m5.62-8.13h1.84q.81 0 1.29.48t.48 1.29c0 .5-.16.91-.48 1.25s-.75.5-1.29.5h-1.84v-3.51Zm4.01 9.97h2.76l-2.67-4.83.11-.07c.61-.34 1.09-.82 1.43-1.38s.5-1.25.5-2.02c0-.5-.09-1-.25-1.45-.18-.45-.43-.84-.77-1.18s-.79-.61-1.31-.79c-.52-.2-1.13-.29-1.84-.29h-4.42v12.01h2.45v-4.51h1.74zm5.41 0h2.51V15.92h-2.51zm16.67-6.5H67.2v1.99h2.15v1.72l-.05.05c-.34.27-.7.45-1.13.59-.41.11-.88.18-1.38.18-.54 0-1.04-.09-1.5-.29-.45-.18-.86-.45-1.2-.82-.34-.34-.61-.77-.79-1.27s-.29-1.04-.29-1.63c0-.54.09-1.06.25-1.56s.41-.93.72-1.29.7-.66 1.16-.88c.45-.2.97-.32 1.56-.32.7 0 1.31.16 1.79.45.45.27.86.63 1.25 1.06l1.7-1.61c-.52-.68-1.18-1.2-1.97-1.59-.82-.41-1.79-.61-2.88-.61-.93 0-1.77.16-2.51.48s-1.4.77-1.95 1.34c-.54.57-.97 1.25-1.27 2.02s-.45 1.61-.45 2.51.14 1.79.43 2.54c.27.77.7 1.43 1.22 1.97.54.54 1.2.97 1.97 1.29.77.29 1.65.45 2.63.45 1.06 0 2.04-.16 2.85-.45s1.54-.7 2.15-1.22zm7.91-3.04 1.59 4.83h-3.22zm2.24 6.73.93 2.81h2.65l-4.28-12.01h-3.06l-4.37 12.01h2.7l.93-2.81h4.51Zm13.3-.41c-.68.66-1.65 1-2.9 1H90.4v-7.59h1.81c.68 0 1.27.09 1.74.27.5.18.91.45 1.22.79s.57.75.72 1.22.23 1 .23 1.56c0 1.16-.34 2.08-1.02 2.74m3.17-.11c.32-.72.48-1.61.48-2.61s-.16-1.95-.48-2.72-.77-1.4-1.31-1.88c-.57-.5-1.25-.86-2.02-1.09-.79-.25-1.65-.36-2.58-.36h-4.49v12.01h4.49c.93 0 1.79-.11 2.58-.36.77-.25 1.45-.61 2.02-1.11.54-.52 1-1.16 1.31-1.88m5.98 1.13v-2.9h3.74l.54-2.11h-4.3v-2.63h4.98l.57-2.17h-8.07v12.01h7.52l.57-2.2z"/></svg>