<?xml version="1.0" encoding="UTF-8"?><svg id="a" xmlns="http://www.w3.org/2000/svg" width="112.47" height="53.25" viewBox="0 0 112.47 53.25"><path d="m34.14,21.64c3.51,0,5.64.62,6.72,1.93.59.72.88,1.67.89,2.88,0,.67-.08,1.42-.25,2.25l-2.41,11.62c-.33,1.61-.53,2.84-.53,3.85,0,.32.03.62.08.91h-6.58c0-.07-.01-.14-.01-.22,0-.48.03-.99.08-1.52l.07-.95h-.36l-.14.23c-1.18,1.9-3.86,3.07-6.16,3.07-1.9,0-3.27-.49-4.05-1.45-.87-1.06-1.07-2.73-.62-4.95.9-4.34,2.87-6.17,7.81-7.28l3.28-.75c1.95-.43,2.89-1.29,3.23-2.97.19-.92.09-1.63-.31-2.12-.37-.45-.95-.67-1.74-.67-1.76,0-2.69.91-3.27,3.17h-5.87c1.58-6.1,7-7.03,10.15-7.03h0Zm-.07,11.96s-.13.12-.39.22c-.42.16-1.34.31-1.91.45-.44.11-.94.24-1.48.46-1.43.61-2.17,1.6-2.55,3.43-.22,1.07-.09,1.95.38,2.52.35.43.87.66,1.5.66,2.57,0,3.37-2.45,3.75-4.3l.71-3.45h-.02l-.7,3.45.7-3.45h0Zm23.59,9.43c-1.39-1.7-1.66-4.38-.7-9.16,2.09-10.4,6.04-12.23,9.48-12.23,1.64,0,4.1.61,4.39,3.47l.05.45h.48s.56-2.7.68-3.3h6.39l-4.75,22.82c-1.13,5.45-4.63,8.17-11.05,8.17-5.95,0-6.83-3.51-6.97-4.59-.05-.41.09-1.63.09-1.63h6.22c0,.56.04,1.38.23,1.61.26.32.47.69,1.46.69,1.31,0,2.56-.38,3.18-3.33l1.06-5.12h-.51l-.14.24c-1.27,2.2-3.65,3.32-6.15,3.32-1.54,0-2.66-.46-3.43-1.4h0Zm6.35-9.66c-.7,3.38-.67,4.69.01,5.52.34.42.85.62,1.55.62,1.94,0,2.89-1.18,3.88-5.94.7-3.41.78-5.58.1-6.41-.33-.4-.82-.6-1.48-.6-2.01,0-3.08,2.05-4.06,6.81h0Zm24.66-11.11c-.23,1.1-4.57,22.09-4.72,22.82h-6.92l4.72-22.82h6.92Zm12.71-7.61c-.23,1.12-6.14,29.69-6.3,30.44h-6.92c.23-1.12,6.14-29.7,6.3-30.44h6.92Zm11.09,0c-.23,1.12-6.15,29.69-6.3,30.44h-6.92c.23-1.12,6.15-29.7,6.3-30.44h6.92Zm-53.83,6.99c-2.27,0-4.97,1.59-6.28,4.14l-.14.26h-.51s.61-2.94.78-3.78h-.59s-6.58,0-6.58,0c.05.29.08.58.08.91,0,.73-.1,1.58-.28,2.59-1.28,6.2-3.83,18.49-4,19.32h6.92c.44-2.14,2.6-12.59,2.6-12.59.65-3.14,2.49-4.61,5.8-4.61.57,0,1.07.03,1.56.11.15-.74,1.12-5.41,1.31-6.35h-.67ZM1.36,43.9c-1.73-2.12-1.81-6.02-.26-13.47,2.46-11.9,6.02-15.92,14.11-15.92,3.23,0,5.5.77,6.74,2.29.8.98,1.21,2.32,1.22,4,0,.92-.11,1.93-.34,3.05l-.33,1.59h-6.81s.5-3.25.5-3.96c0-.81-.04-1.24-.34-1.65-.32-.42-.79-.76-1.54-.76-3.01,0-4,2.87-5.72,11.16-1.33,6.43-1.81,9.39-.78,10.65.39.48.98.71,1.8.71,2.37,0,3.31-2.03,4.5-7.69h6.86c-.13.66-.36,1.74-.36,1.74-1.44,6.98-5.53,10.51-12.15,10.51-3.59,0-5.84-.72-7.09-2.25h0Z" fill="#6b7280" fill-rule="evenodd" stroke-width="0"/><path d="m89.25,19.57c.54-12.54-14.58-21.96-28.7-19.03-14.11,2.93-20.93,15.21-22.71,19.01h2.31c3.09-5.2,6.22-9.23,11.55-10.73,3.39-.95,6.05-.74,12.6,2.92,3.02,1.68,9.84,6.74,17.18,7.76,3.19.44,7.78.08,7.78.08Z" fill="#6b7280" fill-rule="evenodd" stroke-width="0"/></svg>