<?xml version="1.0" encoding="UTF-8"?><svg id="a" xmlns="http://www.w3.org/2000/svg" width="117.88" height="19.87" viewBox="0 0 117.88 19.87"><path d="m5.68,19.62H0V.32h9.82l11.26,14.41V.32h5.68v19.3h-9.62L5.68,4.97v14.66m48.24-5.97c0,2.68-.47,3.61-1.26,4.5-1.2,1.32-2.96,1.72-6.33,1.72h-9.69c-3.38,0-5.13-.4-6.33-1.72-.78-.89-1.26-1.81-1.26-4.5v-7.44c0-2.68.48-3.61,1.26-4.5,1.2-1.32,2.96-1.72,6.33-1.72h9.69c3.38,0,5.13.4,6.33,1.72.79.89,1.26,1.81,1.26,4.5v7.44m-7.83,1.32c1.3,0,1.75-.08,2.06-.36.29-.26.42-.6.42-1.74v-5.89c0-1.13-.13-1.47-.42-1.74-.31-.28-.77-.36-2.06-.36h-9.22c-1.3,0-1.75.07-2.06.36-.29.27-.42.6-.42,1.74v5.89c0,1.13.13,1.47.42,1.74.31.28.77.36,2.06.36h9.22ZM62.16.32v19.3h-5.93V.32h5.93m10.02,0h7.83l-10.57,9.03,11.92,10.27h-8.38l-10.82-10.07L72.18.32h0Zm10.28,0h5.93v19.3h-5.93V.32Zm28.55,19.3l-1.76-3.36h-11.48l-1.73,3.36h-6.55L100,.32h7.37l10.51,19.3h-6.88m-11.17-7.56h7.38l-3.69-6.99-3.69,6.99Z" fill="#6b7280" stroke-width="0"/></svg>