<?xml version="1.0" encoding="UTF-8"?><svg id="a" xmlns="http://www.w3.org/2000/svg" width="110.28" height="24.45" viewBox="0 0 110.28 24.45"><path d="m107.84,0l-6.02,12.89-2.27-4.88h-2.45l3.73,7.99h1.98l7.47-15.99h-2.43Z" fill="#6b7280" stroke-width="0"/><path d="m82,23.93h4.85v-8.88c0-2.03,1.17-3.46,2.92-3.46s2.55,1.17,2.55,2.87v9.46h4.85v-10.39c0-3.52-2.11-6.01-5.54-6.01-2.18,0-3.71.94-4.85,2.65h-.1v-2.18h-4.7l.02,15.92Zm-9.53-16.36c-5.07,0-8.46,3.64-8.46,8.44s3.39,8.44,8.46,8.44,8.46-3.67,8.46-8.44c.02-4.8-3.39-8.44-8.46-8.44h0Zm-.03,13.29c-2.3,0-3.52-1.93-3.52-4.85s1.21-4.85,3.52-4.85,3.57,1.9,3.57,4.85c.02,2.92-1.26,4.85-3.57,4.85Zm-22.25,3.07h13.63v-3.83h-7.72v-.1l7.38-8.27v-3.74h-13.29v3.84h7.47v.1l-7.47,8.34v3.66Zm-6.23,0h4.88v-15.92h-4.88v15.92Zm-11.33,0h4.87v-7.32c0-3.32,2-4.8,5.03-4.38h.1v-4.19c-.25-.1-.54-.12-.99-.12-1.9,0-3.17.87-4.26,2.74h-.1v-2.65h-4.65v15.92Zm-8.93-3.05c-2.15,0-3.46-1.39-3.71-3.54h11.48c.03-3.42-.87-6.16-2.77-7.87-1.34-1.24-3.1-1.93-5.35-1.93-4.8,0-8.12,3.64-8.12,8.41s3.17,8.46,8.44,8.46c2,0,3.57-.54,4.88-1.43,1.39-.96,2.4-2.37,2.67-3.76h-4.66c-.45,1.04-1.43,1.66-2.85,1.66Zm-.25-9.87c1.71,0,2.89,1.28,3.09,3.14h-6.51c.39-1.88,1.41-3.14,3.42-3.14h0ZM5.54,23.93h5.1l5.54-15.92h-4.88l-3.1,10.24h-.07l-3.1-10.24H0l5.54,15.92ZM43.96,2.33h4.88v4.33h-4.88V2.33Z" fill="#6b7280" stroke-width="0"/></svg>