<svg xmlns="http://www.w3.org/2000/svg" width="116" height="33.28"><path fill="#6b7280" d="M101.99 33.28c-2.3-.15-4.08-.86-5.49-2.19a8.1 8.1 0 0 1-1.53-2.06c-.06-.12-.12-.22-.13-.22 0 0-.16.09-.32.19-.37.23-1.5.88-1.98 1.14-3.13 1.69-6.36 2.68-9.62 2.97-1.04.09-2.27.11-3.01.04-1.67-.15-3.02-.63-4.12-1.45-.27-.2-.93-.84-1.13-1.11-.21-.27-.4-.56-.58-.85l-.12-.2-.35.3c-1.94 1.67-3.95 2.71-5.93 3.08-.96.18-1.99.2-2.71.05-1-.2-1.73-.72-2.14-1.53-.47-.93-.59-2.19-.36-4 .14-1.08.25-1.66.73-3.64.26-1.05.48-2.28.56-3.06.05-.47.05-1.15 0-1.47-.11-.71-.37-1.11-.84-1.3-.17-.07-.59-.08-.8-.03-.87.23-1.87 1.28-3.01 3.15-1.56 2.58-2.42 5.01-2.65 7.5-.05.52-.04 1.99.01 2.47.06.54.17 1.08.31 1.46.06.18.12.35.13.37.01.05 0 .05-.78.03-.86-.02-1.4-.06-2-.16-2.15-.35-3.36-1.22-3.89-2.76-.32-.93-.41-1.93-.3-3.42.07-1.03.22-1.87.53-3.12.29-1.15.43-1.87.53-2.69.05-.46.06-1.33.01-1.56-.15-.75-.5-1.16-1.13-1.29-.13-.03-.27-.04-.46-.03-.23 0-.3.02-.47.09-.81.32-1.68 1.38-2.59 3.16-1.01 1.98-1.64 4.1-1.86 6.25-.12 1.17-.12 2.83 0 3.93.06.59.2 1.22.32 1.56.02.05 0 .05-.68.03-1.01-.02-1.68-.1-2.42-.29-1.1-.28-1.98-.77-2.59-1.45-.41-.46-.77-1.14-.98-1.87-.02-.08-.05-.17-.08-.25 0 0-.11.08-.24.2-1.82 1.66-3.47 2.7-5.23 3.3-.97.33-2.03.51-2.97.51-1.38 0-2.37-.48-3.02-1.46-.26-.39-.4-.72-.53-1.22-.25-.97-.2-2.15.15-3.99.23-1.2.47-2.17 1.03-4.17.4-1.44.67-2.45.84-3.1.13-.52.14-.56.14-.83 0-.88-.36-1.4-.98-1.41-.17 0-.2 0-.39.1-.27.14-.49.28-1.03.66l-.45.32-.07.2c-.37 1.12-1.18 2.75-2.12 4.25-1.03 1.66-2.61 3.82-3.97 5.45-2.65 3.18-4.93 4.91-6.94 5.26-.38.07-.93.06-1.22 0-1.24-.31-2.28-1.57-3.17-3.87-.08-.19-.45-1.55-1.17-4.22-.38-1.43-.77-2.86-1.16-4.29-.36-1.26-.84-2.41-1.25-3.04-.32-.48-.72-.79-1.06-.83-.14-.01-.16 0-.37.1-.22.11-.86.52-1.41.91-.15.11-.29.2-.31.21s-.24-.25-.61-.74c-.2-.27-.41-.53-.61-.79-.03-.04.02-.09.41-.44.89-.8 1.77-1.6 2.65-2.4 1.2-1.11 1.9-1.67 2.71-2.2.86-.57 1.4-.78 2.04-.81 1.61-.07 2.67.89 3.25 2.94.14.49.2.81.41 2.14.55 3.46.78 4.71 1.15 6.15.43 1.72.91 2.72 1.42 2.97.14.07.18.08.3.07.56-.04 1.36-.92 2.45-2.68.9-1.45 1.45-2.63 1.64-3.52.05-.22.06-.34.06-.8 0-.45 0-.56-.04-.7-.13-.46-.37-.76-.74-.94-.3-.15-.5-.19-.98-.19-.56 0-1.06.09-1.62.3-.16.06-.25.08-.26.07 0-.01.05-.21.13-.43.45-1.33.98-2.36 1.67-3.25.25-.32.75-.83 1.04-1.07.49-.4 1.14-.77 1.72-.98 1.26-.46 2.97-.54 4.05-.19 1.48.48 2.26 1.72 2.43 3.86l.02.21.12-.11c.06-.06.5-.46.98-.9 1.94-1.79 3.07-2.6 4.02-2.87.18-.05.3-.07.61-.08 1.19-.04 2.01.34 2.58 1.19.52.78.75 1.79.68 2.95-.02.33-.06.56-.27 1.63-.4 1.99-.8 4.28-1.25 7.05-.15.92-.15.96-.14 1.29.04.83.21 1.34.59 1.72.14.14.23.21.37.28.33.16.81.21 1.14.13.19-.05.58-.23.88-.42.56-.34 1.76-1.26 1.78-1.37 0-.03.05-.33.09-.67s.19-1.27.32-2.08c.26-1.56.39-2.48.47-3.28.06-.64.11-1.44.1-1.63-.03-.44-.32-.67-.67-.55-.25.08-.77.4-1.49.91-.3.21-.36.25-.39.22-.15-.16-1.36-1.55-1.36-1.56l.14-.14c.22-.19 1.31-1.21 2.62-2.44 1.6-1.51 2.08-1.94 2.75-2.44.51-.38.9-.61 1.23-.72.15-.05.22-.06.5-.05.2 0 .39.02.5.04.69.15 1.23.55 1.68 1.22.46.69.75 1.43.88 2.28.07.46.08 1.37.01 1.74-.02.13-.04.26-.04.27s.08-.08.17-.22c.64-.95 1.54-1.88 2.54-2.65.28-.21.93-.64 1.21-.81 1.42-.81 3-1.26 4.57-1.31 1.46-.05 2.56.31 3.31 1.06.28.29.51.62.69.98.34.7.5 1.47.53 2.54l.02.52.44-.38c.28-.25.53-.5.71-.7.34-.4 1-1.07 1.4-1.44 1.6-1.46 3.28-2.29 5.12-2.52.44-.06 1.19-.07 1.57-.04 1.09.1 1.92.46 2.51 1.08.9.95 1.27 2.21 1.18 4-.06 1.29-.26 2.49-.8 4.86-.68 2.99-.78 3.62-.7 4.43.06.65.2.93.53 1.1.24.13.46.18.88.19.36.01.38.01.57-.05.23-.08.56-.24.88-.45.19-.12.23-.16.22-.2-.04-.17-.07-1.04-.06-1.58.04-1.75.42-3.26 1.21-4.87.54-1.1 1.19-2.09 2.05-3.12 2.51-3.01 5.5-4.87 8.87-5.51 1.37-.26 2.99-.33 4.19-.17 2.27.29 3.68 1.27 4.31 2.98.21.56.32 1.18.34 1.85.02.71-.04 1.16-.27 1.83-.49 1.5-1.61 2.98-3.42 4.56-2.13 1.85-4.76 3.14-7.74 3.8-.41.09-1.17.24-1.21.24-.03 0 .25.33.43.49.56.54 1.26.85 2.13.95.33.04 1.55.02 2.12-.04 2.39-.23 4.74-.87 7.49-2.05l.56-.24v-.14c-.09-.73-.09-1.76-.02-2.48.2-1.91.85-3.7 1.97-5.41.45-.69.86-1.21 1.5-1.93 1.38-1.55 2.69-2.58 4.3-3.39 1.83-.93 3.77-1.39 5.99-1.44.95-.02 1.59.03 2.34.18 1.06.22 2.04.65 2.86 1.26.49.37 1.11 1.02 1.56 1.67 1.1 1.55 1.64 3.58 1.57 5.89-.06 2.11-.48 4-1.3 5.8-.73 1.61-1.93 3.26-3.27 4.52-2.07 1.93-4.43 3-7.28 3.3-.37.04-1.81.07-2.15.05Zm1.77-5c1.5-.18 2.83-1.22 3.96-3.11 1.16-1.93 1.73-3.99 1.68-6.02-.02-.82-.12-1.44-.35-2.12-.21-.62-.42-1-.7-1.25-.3-.27-.58-.34-1.15-.3-.65.05-1.23.2-1.78.47-1.06.52-1.93 1.39-2.75 2.75-1.06 1.76-1.62 3.53-1.75 5.51-.07 1.06.1 1.95.51 2.78.29.58.67.99 1.08 1.18.31.14.76.18 1.27.12Zm-23.17-4.37c2.31-.92 4.4-2.56 5.63-4.41.38-.58.63-1.12.7-1.58.04-.22.02-.63-.04-.87-.04-.19-.16-.42-.26-.54s-.29-.24-.48-.3-.71-.07-.95-.02c-1.03.22-2.05 1.01-3.07 2.38-1.11 1.5-1.72 2.91-1.85 4.32-.04.36-.03 1.12 0 1.12.02 0 .16-.05.32-.11ZM31.14 7.28c-.57-.05-1.15-.21-1.53-.43-.21-.12-.53-.4-.67-.59-.2-.27-.35-.65-.42-1.08-.06-.34-.05-.98.01-1.29.13-.65.49-1.26 1.09-1.89C30.74.84 32.07.17 33.52.03c.89-.08 1.54.07 2.08.48.52.39.98 1.06 1.17 1.66.09.3.11.81.05 1.17-.14.84-.61 1.63-1.43 2.43-.87.85-1.8 1.32-2.92 1.48-.33.05-1.01.07-1.33.04Z"/></svg>