<svg xmlns="http://www.w3.org/2000/svg" width="116" height="47.17"><path fill="#6b7280" fill-rule="evenodd" d="M9.07 42.64H5.53L0 27.66h3.58l2.85 8.45c.33.99.63 2 .89 3.02.25-1.04.53-1.94.86-2.91l2.95-8.56h3.54L9.06 42.64ZM21.4 38c0 1.24-.88 2.36-2.2 2.36-1.15 0-2.22-.97-2.22-2.32 0-1.26.84-2.38 2.2-2.38 1.24 0 2.22 1.01 2.22 2.34m3.03 0c0-2.84-2.21-4.93-5.23-4.93s-5.25 2.18-5.25 4.91c0 2.91 2.25 4.98 5.11 4.98 3.44 0 5.38-2.45 5.38-4.96Zm2.29 4.64V26.83h3v15.81zm11.59 0-2.91-4.33v4.33h-3V26.83h3v10.36l2.91-3.8h3.67l-3.57 4.26 3.82 4.99H38.3Zm8.43.28c-2.13 0-3.23-.69-3.8-2.19l2.54-.99c.23.61.72 1.05 1.34 1.05s.97-.23.97-.63c0-1.35-4.53-.76-4.53-3.98 0-1.69 1.37-3.08 3.74-3.08 1.74 0 2.96.63 3.57 2.17l-2.4.93c-.3-.74-.81-.97-1.3-.97-.39 0-.82.23-.82.65 0 1.48 4.54.8 4.54 4.04 0 1.88-1.66 2.99-3.85 2.99Zm18.33-.28h-2.83l-1.58-4.55c-.17-.45-.29-.92-.38-1.39-.1.48-.23.95-.38 1.41l-1.58 4.53h-2.96l-3.99-9.27h3.12l1.75 4.46c.21.51.36 1.08.53 1.62.15-.55.3-1.14.44-1.58l1.56-4.51h3.08l1.46 4.21c.21.63.4 1.22.53 1.84.21-.7.42-1.31.63-1.84l1.65-4.21h3.06l-4.12 9.27Zm12.15-4.47c0 1.27-.82 2.43-2.22 2.43s-2.3-1.16-2.3-2.53.95-2.36 2.2-2.36c1.42 0 2.32 1.14 2.32 2.47Zm2.85 4.47V33.4h-2.96v1.08c-.51-.78-1.61-1.37-2.9-1.37-2.87 0-4.6 2.13-4.6 5.04s1.64 4.81 4.32 4.81c1.44 0 2.41-.51 3.17-1.27v.95h2.96Zm9.7-4.74c0 1.25-.78 2.34-2.11 2.34s-2.24-.95-2.24-2.32c0-1.22.86-2.26 2.13-2.26 1.52 0 2.21 1.25 2.21 2.24Zm2.87 3.86v-8.37h-2.96v1.05c-.57-.9-1.62-1.3-2.91-1.3-2.51 0-4.43 2.06-4.43 4.85 0 2.45 1.39 4.58 4.34 4.58 1.16 0 2.17-.34 2.99-1.25v1.31c0 1.5-.67 2.31-2.07 2.31-.91 0-1.77-.57-1.77-1.38h-2.97c0 2.03 1.66 3.62 4.55 3.62 1.69 0 2.97-.4 4-1.4.92-.93 1.21-1.97 1.21-4.02Zm8.91-4.8h-3.71c.11-1.03.83-1.78 1.91-1.78 1.12 0 1.8.9 1.8 1.78m2.96.93c0-3.07-1.93-4.83-4.74-4.83s-4.84 2.16-4.84 5.02c0 3.26 2.32 4.87 4.82 4.87 2.14 0 3.48-.74 4.55-2.14l-1.93-1.27c-.61.81-1.35 1.2-2.3 1.2-1.29 0-2.18-.87-2.25-2.02h6.67c.02-.36.02-.67.02-.84Zm8.5 4.75v-5.12c0-.84-.27-1.82-1.41-1.82-.59 0-1.83.34-1.83 2.07v4.87h-3v-9.25h3v1.22c.44-.61 1.3-1.43 2.98-1.43 1.18 0 1.94.42 2.43.9.59.59.82 1.35.82 2.7v5.86h-3Z"/><path fill="#fff" fill-rule="evenodd" d="M47.03 12.7c0-6.18 5.01-11.19 11.19-11.19S69.41 6.52 69.41 12.7 64.4 23.89 58.22 23.89 47.03 18.88 47.03 12.7"/><circle cx="58.22" cy="12.7" r="11.3" fill="none"/><path fill="#6b7280" fill-rule="evenodd" d="M58.01 5.12c.71 0 1.4.1 2.06.27l-2.18 4.89-2.14-4.82c.74-.23 1.46-.33 2.27-.33Zm-1.37 7.96-1.5 3.32-3.54-7.96c.6-.85 1.36-1.57 2.24-2.13l2.87 6.47h2.58l2.88-6.47c.71.44 1.34.99 1.88 1.63.07.09.15.19.22.29l-3.65 8.17-1.49-3.32zm-2.29 6.9a7.89 7.89 0 0 1-4.21-6.97c0-.73.09-1.41.27-2.08l4.06 9.11s-.07-.04-.12-.06m3.53.83c-.69 0-1.38-.09-2.04-.27l2.15-4.86 2.15 4.81c-.74.21-1.5.32-2.27.32Zm3.73-.93 3.95-8.86c.15.62.23 1.25.23 1.89 0 2.91-1.61 5.59-4.18 6.97m-3.6 2.89c5.38 0 9.75-4.38 9.75-9.75s-4.38-9.75-9.75-9.75-9.75 4.38-9.75 9.75 4.38 9.75 9.75 9.75"/><path fill="#6b7280" d="M58 26c-7.17 0-13-5.83-13-13S50.83 0 58 0s13 5.83 13 13-5.83 13-13 13m0-24c-6.07 0-11 4.93-11 11s4.93 11 11 11 11-4.93 11-11S64.07 2 58 2"/></svg>